<svg baseProfile="full" height="266" version="1.1" viewBox="0,0,218,266" width="218" xmlns="http://www.w3.org/2000/svg" xmlns:ev="http://www.w3.org/2001/xml-events" xmlns:xlink="http://www.w3.org/1999/xlink"><defs /><rect fill="#F5F2EC" height="266" width="218" x="0" y="0" /><text fill="#2D2D2D" font-family="Georgia, &quot;Times New Roman&quot;, serif" font-size="14" font-weight="bold" text-anchor="middle" x="109.0" y="16">F Major (barre)</text><line stroke="#2D2D2D" stroke-linecap="round" stroke-width="5" x1="38" x2="188" y1="66" y2="66" /><line stroke="#4A4A4A" stroke-width="1.5" x1="38" x2="188" y1="102" y2="102" /><line stroke="#4A4A4A" stroke-width="1.5" x1="38" x2="188" y1="138" y2="138" /><line stroke="#4A4A4A" stroke-width="1.5" x1="38" x2="188" y1="174" y2="174" /><line stroke="#4A4A4A" stroke-width="1.5" x1="38" x2="188" y1="210" y2="210" /><line stroke="#4A4A4A" stroke-width="1.5" x1="38" x2="188" y1="246" y2="246" /><line stroke="#2D2D2D" stroke-width="1.5" x1="38" x2="38" y1="66" y2="246" /><line stroke="#2D2D2D" stroke-width="1.5" x1="68" x2="68" y1="66" y2="246" /><line stroke="#2D2D2D" stroke-width="1.5" x1="98" x2="98" y1="66" y2="246" /><line stroke="#2D2D2D" stroke-width="1.5" x1="128" x2="128" y1="66" y2="246" /><line stroke="#2D2D2D" stroke-width="1.5" x1="158" x2="158" y1="66" y2="246" /><line stroke="#2D2D2D" stroke-width="1.5" x1="188" x2="188" y1="66" y2="246" /><rect fill="#2D2D2D" height="22" rx="11" ry="11" width="172" x="27" y="73.0" /><circle cx="38" cy="84.0" fill="#7B35C2" r="11" /><text fill="#F5F2EC" font-family="Georgia, &quot;Times New Roman&quot;, serif" font-size="11" font-weight="bold" text-anchor="middle" x="38" y="88.0">1</text><circle cx="68" cy="84.0" fill="#2D2D2D" r="11" /><text fill="#F5F2EC" font-family="Georgia, &quot;Times New Roman&quot;, serif" font-size="11" font-weight="bold" text-anchor="middle" x="68" y="88.0">1</text><circle cx="98" cy="120.0" fill="#2D2D2D" r="11" /><text fill="#F5F2EC" font-family="Georgia, &quot;Times New Roman&quot;, serif" font-size="11" font-weight="bold" text-anchor="middle" x="98" y="124.0">2</text><circle cx="128" cy="156.0" fill="#2D2D2D" r="11" /><text fill="#F5F2EC" font-family="Georgia, &quot;Times New Roman&quot;, serif" font-size="11" font-weight="bold" text-anchor="middle" x="128" y="160.0">3</text><circle cx="158" cy="156.0" fill="#2D2D2D" r="11" /><text fill="#F5F2EC" font-family="Georgia, &quot;Times New Roman&quot;, serif" font-size="11" font-weight="bold" text-anchor="middle" x="158" y="160.0">4</text><circle cx="188" cy="84.0" fill="#7B35C2" r="11" /><text fill="#F5F2EC" font-family="Georgia, &quot;Times New Roman&quot;, serif" font-size="11" font-weight="bold" text-anchor="middle" x="188" y="88.0">1</text></svg>