<svg baseProfile="full" height="284" version="1.1" viewBox="0,0,218,284" width="218" xmlns="http://www.w3.org/2000/svg" xmlns:ev="http://www.w3.org/2001/xml-events" xmlns:xlink="http://www.w3.org/1999/xlink"><defs /><rect fill="#F5F2EC" height="284" width="218" x="0" y="0" /><text fill="#2D2D2D" font-family="Georgia, &quot;Times New Roman&quot;, serif" font-size="14" font-weight="bold" text-anchor="middle" x="109.0" y="18">G7</text><circle cx="98" cy="42" fill="none" r="6" stroke="#2D2D2D" stroke-width="1.5" /><circle cx="128" cy="42" fill="none" r="6" stroke="#2D2D2D" stroke-width="1.5" /><circle cx="158" cy="42" fill="none" r="6" stroke="#2D2D2D" stroke-width="1.5" /><line stroke="#2D2D2D" stroke-linecap="round" stroke-width="5" x1="38" x2="188" y1="56" y2="56" /><line stroke="#4A4A4A" stroke-width="1.5" x1="38" x2="188" y1="92" y2="92" /><line stroke="#4A4A4A" stroke-width="1.5" x1="38" x2="188" y1="128" y2="128" /><line stroke="#4A4A4A" stroke-width="1.5" x1="38" x2="188" y1="164" y2="164" /><line stroke="#4A4A4A" stroke-width="1.5" x1="38" x2="188" y1="200" y2="200" /><line stroke="#4A4A4A" stroke-width="1.5" x1="38" x2="188" y1="236" y2="236" /><line stroke="#2D2D2D" stroke-width="1.5" x1="38" x2="38" y1="56" y2="236" /><line stroke="#2D2D2D" stroke-width="1.5" x1="68" x2="68" y1="56" y2="236" /><line stroke="#2D2D2D" stroke-width="1.5" x1="98" x2="98" y1="56" y2="236" /><line stroke="#2D2D2D" stroke-width="1.5" x1="128" x2="128" y1="56" y2="236" /><line stroke="#2D2D2D" stroke-width="1.5" x1="158" x2="158" y1="56" y2="236" /><line stroke="#2D2D2D" stroke-width="1.5" x1="188" x2="188" y1="56" y2="236" /><circle cx="38" cy="146.0" fill="#7B35C2" r="11" /><text fill="#F5F2EC" font-family="Georgia, &quot;Times New Roman&quot;, serif" font-size="11" font-weight="bold" text-anchor="middle" x="38" y="150.0">R</text><circle cx="68" cy="110.0" fill="#2D2D2D" r="11" /><text fill="#F5F2EC" font-family="Georgia, &quot;Times New Roman&quot;, serif" font-size="11" font-weight="bold" text-anchor="middle" x="68" y="114.0">5</text><circle cx="188" cy="74.0" fill="#2D2D2D" r="11" /><text fill="#F5F2EC" font-family="Georgia, &quot;Times New Roman&quot;, serif" font-size="11" font-weight="bold" text-anchor="middle" x="188" y="78.0">b7</text><circle cx="34.46000000000001" cy="263" fill="#7B35C2" r="5" /><text fill="#F5F2EC" font-family="Georgia, &quot;Times New Roman&quot;, serif" font-size="7" font-weight="bold" text-anchor="middle" x="34.46000000000001" y="266">R</text><text fill="#4A4A4A" font-family="Georgia, &quot;Times New Roman&quot;, serif" font-size="9" x="43.46000000000001" y="266">Root</text><circle cx="79.34" cy="263" fill="#2D2D2D" r="5" /><text fill="#F5F2EC" font-family="Georgia, &quot;Times New Roman&quot;, serif" font-size="7" font-weight="bold" text-anchor="middle" x="79.34" y="266">3</text><text fill="#4A4A4A" font-family="Georgia, &quot;Times New Roman&quot;, serif" font-size="9" x="88.34" y="266">3rd</text><circle cx="119.0" cy="263" fill="#2D2D2D" r="5" /><text fill="#F5F2EC" font-family="Georgia, &quot;Times New Roman&quot;, serif" font-size="7" font-weight="bold" text-anchor="middle" x="119.0" y="266">5</text><text fill="#4A4A4A" font-family="Georgia, &quot;Times New Roman&quot;, serif" font-size="9" x="128.0" y="266">5th</text><circle cx="158.66" cy="263" fill="#2D2D2D" r="5" /><text fill="#F5F2EC" font-family="Georgia, &quot;Times New Roman&quot;, serif" font-size="7" font-weight="bold" text-anchor="middle" x="158.66" y="266">b7</text><text fill="#4A4A4A" font-family="Georgia, &quot;Times New Roman&quot;, serif" font-size="9" x="167.66" y="266">b7th</text></svg>