<svg baseProfile="full" height="246" version="1.1" viewBox="0,0,217,246" width="217" xmlns="http://www.w3.org/2000/svg" xmlns:ev="http://www.w3.org/2001/xml-events" xmlns:xlink="http://www.w3.org/1999/xlink"><defs /><rect fill="#F5F2EC" height="246" width="217" x="0" y="0" /><text fill="#2D2D2D" font-family="Georgia, &quot;Times New Roman&quot;, serif" font-size="13" font-weight="bold" text-anchor="middle" x="108.5" y="16">A Minor Pentatonic</text><line stroke="#4A4A4A" stroke-width="1.5" x1="52" x2="202" y1="46" y2="46" /><line stroke="#4A4A4A" stroke-width="1.5" x1="52" x2="202" y1="82" y2="82" /><line stroke="#4A4A4A" stroke-width="1.5" x1="52" x2="202" y1="118" y2="118" /><line stroke="#4A4A4A" stroke-width="1.5" x1="52" x2="202" y1="154" y2="154" /><line stroke="#4A4A4A" stroke-width="1.5" x1="52" x2="202" y1="190" y2="190" /><line stroke="#4A4A4A" stroke-width="1.5" x1="52" x2="202" y1="226" y2="226" /><line stroke="#2D2D2D" stroke-width="1.5" x1="52" x2="52" y1="46" y2="226" /><line stroke="#2D2D2D" stroke-width="1.5" x1="82" x2="82" y1="46" y2="226" /><line stroke="#2D2D2D" stroke-width="1.5" x1="112" x2="112" y1="46" y2="226" /><line stroke="#2D2D2D" stroke-width="1.5" x1="142" x2="142" y1="46" y2="226" /><line stroke="#2D2D2D" stroke-width="1.5" x1="172" x2="172" y1="46" y2="226" /><line stroke="#2D2D2D" stroke-width="1.5" x1="202" x2="202" y1="46" y2="226" /><text fill="#4A4A4A" font-family="Georgia, &quot;Times New Roman&quot;, serif" font-size="11" text-anchor="end" x="31" y="68.0">5</text><text fill="#4A4A4A" font-family="Georgia, &quot;Times New Roman&quot;, serif" font-size="11" text-anchor="end" x="31" y="104.0">6</text><text fill="#4A4A4A" font-family="Georgia, &quot;Times New Roman&quot;, serif" font-size="11" text-anchor="end" x="31" y="140.0">7</text><text fill="#4A4A4A" font-family="Georgia, &quot;Times New Roman&quot;, serif" font-size="11" text-anchor="end" x="31" y="176.0">8</text><text fill="#4A4A4A" font-family="Georgia, &quot;Times New Roman&quot;, serif" font-size="11" text-anchor="end" x="31" y="212.0">9</text><circle cx="52" cy="64.0" fill="#7B35C2" r="11" /><text fill="#FFFFFF" font-family="Georgia, &quot;Times New Roman&quot;, serif" font-size="10" font-weight="bold" text-anchor="middle" x="52" y="68.0">R</text><circle cx="52" cy="172.0" fill="#2D2D2D" r="11" /><circle cx="82" cy="64.0" fill="#2D2D2D" r="11" /><circle cx="82" cy="136.0" fill="#2D2D2D" r="11" /><circle cx="112" cy="64.0" fill="#2D2D2D" r="11" /><circle cx="112" cy="136.0" fill="#7B35C2" r="11" /><text fill="#FFFFFF" font-family="Georgia, &quot;Times New Roman&quot;, serif" font-size="10" font-weight="bold" text-anchor="middle" x="112" y="140.0">R</text><circle cx="142" cy="64.0" fill="#2D2D2D" r="11" /><circle cx="142" cy="136.0" fill="#2D2D2D" r="11" /><circle cx="172" cy="64.0" fill="#2D2D2D" r="11" /><circle cx="172" cy="172.0" fill="#2D2D2D" r="11" /><circle cx="202" cy="64.0" fill="#7B35C2" r="11" /><text fill="#FFFFFF" font-family="Georgia, &quot;Times New Roman&quot;, serif" font-size="10" font-weight="bold" text-anchor="middle" x="202" y="68.0">R</text><circle cx="202" cy="172.0" fill="#2D2D2D" r="11" /></svg>