<svg baseProfile="full" height="282" version="1.1" viewBox="0,0,218,282" width="218" xmlns="http://www.w3.org/2000/svg" xmlns:ev="http://www.w3.org/2001/xml-events" xmlns:xlink="http://www.w3.org/1999/xlink"><defs /><rect fill="#F5F2EC" height="282" width="218" x="0" y="0" /><text fill="#2D2D2D" font-family="Georgia, &quot;Times New Roman&quot;, serif" font-size="13" font-weight="bold" text-anchor="middle" x="109.0" y="16">A Minor Pentatonic</text><line stroke="#4A4A4A" stroke-width="1.5" x1="38" x2="188" y1="46" y2="46" /><line stroke="#4A4A4A" stroke-width="1.5" x1="38" x2="188" y1="82" y2="82" /><line stroke="#4A4A4A" stroke-width="1.5" x1="38" x2="188" y1="118" y2="118" /><line stroke="#4A4A4A" stroke-width="1.5" x1="38" x2="188" y1="154" y2="154" /><line stroke="#4A4A4A" stroke-width="1.5" x1="38" x2="188" y1="190" y2="190" /><line stroke="#4A4A4A" stroke-width="1.5" x1="38" x2="188" y1="226" y2="226" /><line stroke="#4A4A4A" stroke-width="1.5" x1="38" x2="188" y1="262" y2="262" /><line stroke="#2D2D2D" stroke-width="1.5" x1="38" x2="38" y1="46" y2="262" /><line stroke="#2D2D2D" stroke-width="1.5" x1="68" x2="68" y1="46" y2="262" /><line stroke="#2D2D2D" stroke-width="1.5" x1="98" x2="98" y1="46" y2="262" /><line stroke="#2D2D2D" stroke-width="1.5" x1="128" x2="128" y1="46" y2="262" /><line stroke="#2D2D2D" stroke-width="1.5" x1="158" x2="158" y1="46" y2="262" /><line stroke="#2D2D2D" stroke-width="1.5" x1="188" x2="188" y1="46" y2="262" /><text fill="#4A4A4A" font-family="Georgia, &quot;Times New Roman&quot;, serif" font-size="10" x="196" y="68.0">5</text><text fill="#4A4A4A" font-family="Georgia, &quot;Times New Roman&quot;, serif" font-size="10" x="196" y="104.0">6</text><text fill="#4A4A4A" font-family="Georgia, &quot;Times New Roman&quot;, serif" font-size="10" x="196" y="140.0">7</text><text fill="#4A4A4A" font-family="Georgia, &quot;Times New Roman&quot;, serif" font-size="10" x="196" y="176.0">8</text><text fill="#4A4A4A" font-family="Georgia, &quot;Times New Roman&quot;, serif" font-size="10" x="196" y="212.0">9</text><text fill="#4A4A4A" font-family="Georgia, &quot;Times New Roman&quot;, serif" font-size="10" x="196" y="248.0">10</text><circle cx="38" cy="64.0" fill="#7B35C2" r="11" /><text fill="#FFFFFF" font-family="Georgia, &quot;Times New Roman&quot;, serif" font-size="10" font-weight="bold" text-anchor="middle" x="38" y="68.0">R</text><circle cx="38" cy="172.0" fill="#2D2D2D" r="11" /><circle cx="68" cy="64.0" fill="#7B35C2" r="11" /><text fill="#FFFFFF" font-family="Georgia, &quot;Times New Roman&quot;, serif" font-size="10" font-weight="bold" text-anchor="middle" x="68" y="68.0">R</text><circle cx="68" cy="136.0" fill="#2D2D2D" r="11" /><circle cx="98" cy="64.0" fill="#7B35C2" r="11" /><text fill="#FFFFFF" font-family="Georgia, &quot;Times New Roman&quot;, serif" font-size="10" font-weight="bold" text-anchor="middle" x="98" y="68.0">R</text><circle cx="98" cy="136.0" fill="#2D2D2D" r="11" /><circle cx="128" cy="64.0" fill="#7B35C2" r="11" /><text fill="#FFFFFF" font-family="Georgia, &quot;Times New Roman&quot;, serif" font-size="10" font-weight="bold" text-anchor="middle" x="128" y="68.0">R</text><circle cx="128" cy="136.0" fill="#2D2D2D" r="11" /><circle cx="158" cy="64.0" fill="#7B35C2" r="11" /><text fill="#FFFFFF" font-family="Georgia, &quot;Times New Roman&quot;, serif" font-size="10" font-weight="bold" text-anchor="middle" x="158" y="68.0">R</text><circle cx="158" cy="172.0" fill="#2D2D2D" r="11" /><circle cx="188" cy="64.0" fill="#7B35C2" r="11" /><text fill="#FFFFFF" font-family="Georgia, &quot;Times New Roman&quot;, serif" font-size="10" font-weight="bold" text-anchor="middle" x="188" y="68.0">R</text><circle cx="188" cy="172.0" fill="#2D2D2D" r="11" /></svg>