<svg baseProfile="full" height="160" version="1.1" viewBox="0,0,311,160" width="311" xmlns="http://www.w3.org/2000/svg" xmlns:ev="http://www.w3.org/2001/xml-events" xmlns:xlink="http://www.w3.org/1999/xlink"><defs /><rect fill="#F5F2EC" height="160" width="311" x="0" y="0" /><text fill="#2D2D2D" font-family="Georgia, &quot;Times New Roman&quot;, serif" font-size="12" font-style="italic" font-weight="bold" text-anchor="middle" x="155.5" y="16">E Chord Arpeggio</text><text fill="#2D2D2D" font-family="&quot;Courier New&quot;, Courier, monospace" font-size="12" x="32" y="40">e</text><line stroke="#2D2D2D" stroke-width="1.2" x1="39.8" x2="291.8" y1="36" y2="36" /><text fill="#2D2D2D" font-family="&quot;Courier New&quot;, Courier, monospace" font-size="12" x="32" y="58">B</text><line stroke="#2D2D2D" stroke-width="1.2" x1="39.8" x2="291.8" y1="54" y2="54" /><text fill="#2D2D2D" font-family="&quot;Courier New&quot;, Courier, monospace" font-size="12" x="32" y="76">G</text><line stroke="#2D2D2D" stroke-width="1.2" x1="39.8" x2="291.8" y1="72" y2="72" /><text fill="#2D2D2D" font-family="&quot;Courier New&quot;, Courier, monospace" font-size="12" x="32" y="94">D</text><line stroke="#2D2D2D" stroke-width="1.2" x1="39.8" x2="291.8" y1="90" y2="90" /><text fill="#2D2D2D" font-family="&quot;Courier New&quot;, Courier, monospace" font-size="12" x="32" y="112">A</text><line stroke="#2D2D2D" stroke-width="1.2" x1="39.8" x2="291.8" y1="108" y2="108" /><text fill="#2D2D2D" font-family="&quot;Courier New&quot;, Courier, monospace" font-size="12" x="32" y="130">E</text><line stroke="#2D2D2D" stroke-width="1.2" x1="39.8" x2="291.8" y1="126" y2="126" /><line stroke="#4A4A4A" stroke-width="1.8" x1="284.8" x2="284.8" y1="27.9" y2="134.1" /><line stroke="#4A4A4A" stroke-width="1.8" x1="46.8" x2="46.8" y1="27.9" y2="134.1" /><rect fill="#F5F2EC" height="17.0" width="14" x="81.8" y="23.759999999999998" /><text fill="#2D2D2D" font-family="&quot;Courier New&quot;, Courier, monospace" font-size="17" font-weight="bold" text-anchor="middle" x="88.8" y="41">0</text><rect fill="#F5F2EC" height="17.0" width="14" x="109.8" y="41.76" /><text fill="#2D2D2D" font-family="&quot;Courier New&quot;, Courier, monospace" font-size="17" font-weight="bold" text-anchor="middle" x="116.8" y="59">0</text><rect fill="#F5F2EC" height="17.0" width="14" x="137.8" y="59.76" /><text fill="#2D2D2D" font-family="&quot;Courier New&quot;, Courier, monospace" font-size="17" font-weight="bold" text-anchor="middle" x="144.8" y="77">1</text><rect fill="#F5F2EC" height="17.0" width="14" x="165.8" y="77.76" /><text fill="#2D2D2D" font-family="&quot;Courier New&quot;, Courier, monospace" font-size="17" font-weight="bold" text-anchor="middle" x="172.8" y="95">2</text><rect fill="#F5F2EC" height="17.0" width="14" x="193.8" y="95.76" /><text fill="#2D2D2D" font-family="&quot;Courier New&quot;, Courier, monospace" font-size="17" font-weight="bold" text-anchor="middle" x="200.8" y="113">2</text><rect fill="#F5F2EC" height="17.0" width="14" x="221.8" y="113.76" /><text fill="#2D2D2D" font-family="&quot;Courier New&quot;, Courier, monospace" font-size="17" font-weight="bold" text-anchor="middle" x="228.8" y="131">0</text></svg>