<svg baseProfile="full" height="184" version="1.1" viewBox="0,0,209,184" width="209" xmlns="http://www.w3.org/2000/svg" xmlns:ev="http://www.w3.org/2001/xml-events" xmlns:xlink="http://www.w3.org/1999/xlink"><defs /><rect fill="#F5F2EC" height="184" width="209" x="0" y="0" /><text fill="#2D2D2D" font-family="Georgia, &quot;Times New Roman&quot;, serif" font-size="12" font-style="italic" font-weight="bold" text-anchor="middle" x="104.5" y="16">Example Riff</text><text fill="#2D2D2D" font-family="&quot;Courier New&quot;, Courier, monospace" font-size="12" x="32" y="40">e</text><line stroke="#2D2D2D" stroke-width="1.2" x1="39.8" x2="189.8" y1="36" y2="36" /><line stroke="#4A4A4A" stroke-width="2.0" x1="44.8" x2="44.8" y1="27.2" y2="44.8" /><line stroke="#4A4A4A" stroke-width="2.0" x1="184.8" x2="184.8" y1="27.2" y2="44.8" /><text fill="#2D2D2D" font-family="&quot;Courier New&quot;, Courier, monospace" font-size="12" x="32" y="62">B</text><line stroke="#2D2D2D" stroke-width="1.2" x1="39.8" x2="189.8" y1="58" y2="58" /><line stroke="#4A4A4A" stroke-width="2.0" x1="44.8" x2="44.8" y1="49.2" y2="66.8" /><line stroke="#4A4A4A" stroke-width="2.0" x1="184.8" x2="184.8" y1="49.2" y2="66.8" /><text fill="#2D2D2D" font-family="&quot;Courier New&quot;, Courier, monospace" font-size="12" x="32" y="84">G</text><line stroke="#2D2D2D" stroke-width="1.2" x1="39.8" x2="189.8" y1="80" y2="80" /><line stroke="#4A4A4A" stroke-width="2.0" x1="44.8" x2="44.8" y1="71.2" y2="88.8" /><line stroke="#4A4A4A" stroke-width="2.0" x1="184.8" x2="184.8" y1="71.2" y2="88.8" /><text fill="#2D2D2D" font-family="&quot;Courier New&quot;, Courier, monospace" font-size="12" x="32" y="106">D</text><line stroke="#2D2D2D" stroke-width="1.2" x1="39.8" x2="189.8" y1="102" y2="102" /><line stroke="#4A4A4A" stroke-width="2.0" x1="44.8" x2="44.8" y1="93.2" y2="110.8" /><text fill="#2D2D2D" font-family="&quot;Courier New&quot;, Courier, monospace" font-size="12" font-weight="bold" text-anchor="middle" x="74.8" y="106">0</text><text fill="#2D2D2D" font-family="&quot;Courier New&quot;, Courier, monospace" font-size="12" font-weight="bold" text-anchor="middle" x="94.8" y="106">2</text><text fill="#2D2D2D" font-family="&quot;Courier New&quot;, Courier, monospace" font-size="12" font-weight="bold" text-anchor="middle" x="114.8" y="106">3</text><text fill="#2D2D2D" font-family="&quot;Courier New&quot;, Courier, monospace" font-size="12" font-weight="bold" text-anchor="middle" x="134.8" y="106">5</text><line stroke="#4A4A4A" stroke-width="2.0" x1="184.8" x2="184.8" y1="93.2" y2="110.8" /><text fill="#2D2D2D" font-family="&quot;Courier New&quot;, Courier, monospace" font-size="12" x="32" y="128">A</text><line stroke="#2D2D2D" stroke-width="1.2" x1="39.8" x2="189.8" y1="124" y2="124" /><line stroke="#4A4A4A" stroke-width="2.0" x1="44.8" x2="44.8" y1="115.2" y2="132.8" /><text fill="#2D2D2D" font-family="&quot;Courier New&quot;, Courier, monospace" font-size="12" font-weight="bold" text-anchor="middle" x="74.8" y="128">0</text><text fill="#2D2D2D" font-family="&quot;Courier New&quot;, Courier, monospace" font-size="12" font-weight="bold" text-anchor="middle" x="94.8" y="128">2</text><text fill="#2D2D2D" font-family="&quot;Courier New&quot;, Courier, monospace" font-size="12" font-weight="bold" text-anchor="middle" x="114.8" y="128">3</text><text fill="#2D2D2D" font-family="&quot;Courier New&quot;, Courier, monospace" font-size="12" font-weight="bold" text-anchor="middle" x="134.8" y="128">5</text><line stroke="#4A4A4A" stroke-width="2.0" x1="184.8" x2="184.8" y1="115.2" y2="132.8" /><text fill="#2D2D2D" font-family="&quot;Courier New&quot;, Courier, monospace" font-size="12" x="32" y="150">E</text><line stroke="#2D2D2D" stroke-width="1.2" x1="39.8" x2="189.8" y1="146" y2="146" /><line stroke="#4A4A4A" stroke-width="2.0" x1="44.8" x2="44.8" y1="137.2" y2="154.8" /><text fill="#2D2D2D" font-family="&quot;Courier New&quot;, Courier, monospace" font-size="12" font-weight="bold" text-anchor="middle" x="54.8" y="150">0</text><line stroke="#4A4A4A" stroke-width="2.0" x1="184.8" x2="184.8" y1="137.2" y2="154.8" /></svg>